<svg height="542" width="720" xmlns="http://www.w3.org/2000/svg">
<rect height="542" fill="#555" width="720"></rect>
<text fill="#7f7" font-family="Courier New" font-size="12" xml:space="preserve">
<tspan x="10" y="26">14 megabytes installed</tspan>
<tspan x="10" y="42"></tspan>
<tspan x="10" y="58">node_modules</tspan>
<tspan x="10" y="74">├── UNMET PEER DEPENDENCY eslint@&gt;=3.6</tspan>
<tspan x="10" y="90">└─┬ eslint-plugin-ava@4.2.0 </tspan>
<tspan x="10" y="106">  ├── arrify@1.0.1 </tspan>
<tspan x="10" y="122">  ├─┬ deep-strict-equal@0.2.0 </tspan>
<tspan x="10" y="138">  │ └─┬ core-assert@0.2.1 </tspan>
<tspan x="10" y="154">  │   ├── buf-compare@1.0.1 </tspan>
<tspan x="10" y="170">  │   └── is-error@2.2.1 </tspan>
<tspan x="10" y="186">  ├─┬ enhance-visitors@1.0.0 </tspan>
<tspan x="10" y="202">  │ └── lodash@4.17.4 </tspan>
<tspan x="10" y="218">  ├─┬ espree@3.4.1 </tspan>
<tspan x="10" y="234">  │ ├── acorn@5.0.3 </tspan>
<tspan x="10" y="250">  │ └─┬ acorn-jsx@3.0.1 </tspan>
<tspan x="10" y="266">  │   └── acorn@3.3.0 </tspan>
<tspan x="10" y="282">  ├─┬ espurify@1.7.0 </tspan>
<tspan x="10" y="298">  │ └── core-js@2.4.1 </tspan>
<tspan x="10" y="314">  ├─┬ multimatch@2.1.0 </tspan>
<tspan x="10" y="330">  │ ├── array-differ@1.0.0 </tspan>
<tspan x="10" y="346">  │ ├─┬ array-union@1.0.2 </tspan>
<tspan x="10" y="362">  │ │ └── array-uniq@1.0.3 </tspan>
<tspan x="10" y="378">  │ └─┬ minimatch@3.0.3 </tspan>
<tspan x="10" y="394">  │   └─┬ brace-expansion@1.1.7 </tspan>
<tspan x="10" y="410">  │     ├── balanced-match@0.4.2 </tspan>
<tspan x="10" y="426">  │     └── concat-map@0.0.1 </tspan>
<tspan x="10" y="442">  ├─┬ pkg-up@1.0.0 </tspan>
<tspan x="10" y="458">  │ └─┬ find-up@1.1.2 </tspan>
<tspan x="10" y="474">  │   ├── path-exists@2.1.0 </tspan>
<tspan x="10" y="490">  │   └─┬ pinkie-promise@2.0.1 </tspan>
<tspan x="10" y="506">  │     └── pinkie@2.0.4 </tspan>
<tspan x="10" y="522">  └── req-all@1.0.0</tspan>
</text>
</svg>
